# xmcd CD database file
#
# Track frame offsets:
#	150
#	30305
#	79950
#	93317
#
# Disc length: 2003 seconds
#
# Revision: 0
# Processed by: cddbd v1.5PL3 Copyright (c) Steve Scherf et al.
# Submitted via: CDex 1.51
#
DISCID=2207d104
DTITLE=Andreas Vollenweider - Tales Of Kira Kutan
DYEAR=2001
DGENRE=New Age
TTITLE0=Tales Of Kira Kutan
TTITLE1=Micro-Macro
TTITLE2=Pegasus
TTITLE3=Passionata
EXTD=YEAR: 2001
EXTT0=
EXTT1=
EXTT2=
EXTT3=
PLAYORDER=
